<svg width="682" height="115" viewBox="0 0 682 115" fill="none" xmlns="http://www.w3.org/2000/svg">
<g filter="url(#filter0_dd)">
<path d="M39.624 52.8125C40.3564 52.8125 40.9912 53.0811 41.5283 53.6182C42.0654 54.1553 42.334 54.8145 42.334 55.5957V91.4111C42.334 92.4854 41.9434 93.4131 41.1621 94.1943C40.3809 94.9268 39.4531 95.293 38.3789 95.293H37.6465C36.3281 95.293 35.2783 94.7559 34.4971 93.6816L11.2793 60.1367V92.583C11.2793 93.3154 11.0107 93.9502 10.4736 94.4873C9.93652 95.0244 9.27734 95.293 8.49609 95.293C7.76367 95.293 7.12891 95.0244 6.5918 94.4873C6.05469 93.9502 5.78613 93.3154 5.78613 92.583V56.7676C5.78613 55.6934 6.15234 54.7656 6.88477 53.9844C7.66602 53.2031 8.61816 52.8125 9.74121 52.8125H10.4736C11.7432 52.8125 12.8662 53.4229 13.8428 54.6436L36.9141 87.9688V55.5957C36.9141 54.8633 37.1826 54.2285 37.7197 53.6914C38.2568 53.1055 38.8916 52.8125 39.624 52.8125ZM85.8398 90.8984C86.2793 91.4355 86.499 92.0703 86.499 92.8027C86.499 93.4863 86.2549 94.0723 85.7666 94.5605C85.2783 95.0488 84.6191 95.293 83.7891 95.293C82.959 95.293 82.251 94.9512 81.665 94.2676L66.2109 74.4922L59.3994 81.377V92.583C59.3994 93.3154 59.1309 93.9502 58.5938 94.4873C58.0566 95.0244 57.3975 95.293 56.6162 95.293C55.8838 95.293 55.249 95.0244 54.7119 94.4873C54.1748 93.9502 53.9062 93.3154 53.9062 92.583V55.5957C53.9062 54.8633 54.1748 54.2285 54.7119 53.6914C55.249 53.1055 55.8838 52.8125 56.6162 52.8125C57.3486 52.8125 57.9834 53.0811 58.5205 53.6182C59.1064 54.1553 59.3994 54.8145 59.3994 55.5957V74.6387L79.9072 53.8379C80.3955 53.2031 81.0303 52.8857 81.8115 52.8857C82.6416 52.8369 83.3008 53.0566 83.7891 53.5449C84.2773 53.9844 84.5215 54.5947 84.5215 55.376C84.5215 56.1084 84.2773 56.6699 83.7891 57.0605L69.9463 70.8301L85.8398 90.8984ZM118.506 52.8125C119.189 52.8125 119.824 53.0322 120.41 53.4717C120.996 53.9111 121.387 54.4482 121.582 55.083L131.763 88.1152L141.797 55.0098C142.236 53.5449 143.164 52.8125 144.58 52.8125C145.361 52.8125 145.996 53.0566 146.484 53.5449C146.973 53.9844 147.217 54.4727 147.217 55.0098C147.217 55.5469 147.144 56.0352 146.997 56.4746L135.278 92.583C134.644 94.3896 133.447 95.293 131.689 95.293C130.908 95.293 130.176 95.0488 129.492 94.5605C128.857 94.0723 128.418 93.4131 128.174 92.583L118.506 62.041L108.838 92.583C108.594 93.3643 108.13 94.0234 107.446 94.5605C106.812 95.0488 106.104 95.293 105.322 95.293C103.613 95.293 102.417 94.3896 101.733 92.583L90.0146 56.4746C89.917 56.0352 89.8682 55.5469 89.8682 55.0098C89.8682 54.4727 90.0879 53.9844 90.5273 53.5449C91.0156 53.0566 91.626 52.8125 92.3584 52.8125C93.8232 52.8125 94.751 53.5449 95.1416 55.0098L105.249 88.1152L115.356 55.083C115.552 54.3994 115.942 53.8623 116.528 53.4717C117.163 53.0322 117.822 52.8125 118.506 52.8125Z" fill="#BB6BD9"/>
</g>
<path d="M171.492 84.19C170.612 84.19 169.862 83.88 169.242 83.26C168.622 82.64 168.312 81.89 168.312 81.01C168.312 80.11 168.622 79.35 169.242 78.73C169.862 78.09 170.612 77.77 171.492 77.77C172.392 77.77 173.152 78.09 173.772 78.73C174.392 79.35 174.702 80.11 174.702 81.01C174.702 81.89 174.392 82.64 173.772 83.26C173.152 83.88 172.392 84.19 171.492 84.19ZM202.37 69.94C205.93 69.94 208.67 70.87 210.59 72.73C212.53 74.59 213.5 77.18 213.5 80.5C213.5 83.82 212.53 86.4 210.59 88.24C208.67 90.08 205.93 91 202.37 91H196.46V69.94H202.37ZM202.37 89.86C205.55 89.86 207.97 89.04 209.63 87.4C211.29 85.74 212.12 83.44 212.12 80.5C212.12 77.54 211.29 75.23 209.63 73.57C207.97 71.91 205.55 71.08 202.37 71.08H197.81V89.86H202.37ZM232.253 81.76C232.253 82.48 232.233 83.02 232.193 83.38H218.123C218.163 84.84 218.483 86.07 219.083 87.07C219.683 88.07 220.473 88.82 221.453 89.32C222.433 89.82 223.503 90.07 224.663 90.07C226.263 90.07 227.603 89.68 228.683 88.9C229.763 88.1 230.443 87.02 230.723 85.66H232.133C231.813 87.32 230.993 88.67 229.673 89.71C228.353 90.73 226.683 91.24 224.663 91.24C223.143 91.24 221.783 90.9 220.583 90.22C219.383 89.54 218.443 88.57 217.763 87.31C217.083 86.03 216.743 84.54 216.743 82.84C216.743 81.14 217.073 79.66 217.733 78.4C218.413 77.14 219.353 76.18 220.553 75.52C221.753 74.84 223.123 74.5 224.663 74.5C226.223 74.5 227.573 74.84 228.713 75.52C229.873 76.18 230.753 77.07 231.353 78.19C231.953 79.29 232.253 80.48 232.253 81.76ZM230.903 82.27C230.963 80.83 230.703 79.61 230.123 78.61C229.563 77.61 228.793 76.87 227.813 76.39C226.833 75.89 225.773 75.64 224.633 75.64C223.493 75.64 222.433 75.89 221.453 76.39C220.493 76.87 219.703 77.61 219.083 78.61C218.483 79.61 218.163 80.83 218.123 82.27H230.903ZM238.343 75.88V86.65C238.343 87.85 238.563 88.68 239.003 89.14C239.443 89.58 240.223 89.8 241.343 89.8H243.173V91H241.133C239.713 91 238.663 90.67 237.983 90.01C237.323 89.33 236.993 88.21 236.993 86.65V75.88H234.533V74.71H236.993V70.57H238.343V74.71H243.173V75.88H238.343ZM261.403 81.76C261.403 82.48 261.383 83.02 261.343 83.38H247.273C247.313 84.84 247.633 86.07 248.233 87.07C248.833 88.07 249.623 88.82 250.603 89.32C251.583 89.82 252.653 90.07 253.813 90.07C255.413 90.07 256.753 89.68 257.833 88.9C258.913 88.1 259.593 87.02 259.873 85.66H261.283C260.963 87.32 260.143 88.67 258.823 89.71C257.503 90.73 255.833 91.24 253.813 91.24C252.293 91.24 250.933 90.9 249.733 90.22C248.533 89.54 247.593 88.57 246.913 87.31C246.233 86.03 245.893 84.54 245.893 82.84C245.893 81.14 246.223 79.66 246.883 78.4C247.563 77.14 248.503 76.18 249.703 75.52C250.903 74.84 252.273 74.5 253.813 74.5C255.373 74.5 256.723 74.84 257.863 75.52C259.023 76.18 259.903 77.07 260.503 78.19C261.103 79.29 261.403 80.48 261.403 81.76ZM260.053 82.27C260.113 80.83 259.853 79.61 259.273 78.61C258.713 77.61 257.943 76.87 256.963 76.39C255.983 75.89 254.923 75.64 253.783 75.64C252.643 75.64 251.583 75.89 250.603 76.39C249.643 76.87 248.853 77.61 248.233 78.61C247.633 79.61 247.313 80.83 247.273 82.27H260.053ZM264.643 82.84C264.643 81.14 264.973 79.66 265.633 78.4C266.313 77.14 267.243 76.18 268.423 75.52C269.623 74.84 270.993 74.5 272.533 74.5C274.573 74.5 276.243 75.01 277.543 76.03C278.863 77.05 279.683 78.42 280.003 80.14H278.593C278.333 78.74 277.653 77.64 276.553 76.84C275.473 76.04 274.133 75.64 272.533 75.64C271.333 75.64 270.243 75.91 269.263 76.45C268.283 76.97 267.493 77.78 266.893 78.88C266.313 79.96 266.023 81.28 266.023 82.84C266.023 84.42 266.313 85.75 266.893 86.83C267.493 87.91 268.283 88.72 269.263 89.26C270.243 89.8 271.333 90.07 272.533 90.07C274.133 90.07 275.473 89.67 276.553 88.87C277.653 88.07 278.333 86.97 278.593 85.57H280.003C279.683 87.27 278.863 88.64 277.543 89.68C276.223 90.72 274.553 91.24 272.533 91.24C270.993 91.24 269.623 90.9 268.423 90.22C267.243 89.54 266.313 88.57 265.633 87.31C264.973 86.03 264.643 84.54 264.643 82.84ZM291.166 90.07C292.766 90.07 294.106 89.67 295.186 88.87C296.286 88.07 296.966 86.97 297.226 85.57H298.636C298.336 87.21 297.566 88.55 296.326 89.59C295.106 90.61 293.536 91.16 291.616 91.24V93.34C292.836 93.28 293.776 93.47 294.436 93.91C295.096 94.37 295.426 95.04 295.426 95.92C295.426 96.76 295.126 97.43 294.526 97.93C293.946 98.43 293.126 98.68 292.066 98.68H289.636V97.69H291.826C292.686 97.69 293.296 97.54 293.656 97.24C294.036 96.94 294.226 96.5 294.226 95.92C294.226 94.82 293.426 94.27 291.826 94.27H290.566V91.21C289.146 91.13 287.886 90.74 286.786 90.04C285.686 89.34 284.826 88.37 284.206 87.13C283.586 85.89 283.276 84.46 283.276 82.84C283.276 81.14 283.606 79.66 284.266 78.4C284.946 77.14 285.876 76.18 287.056 75.52C288.256 74.84 289.626 74.5 291.166 74.5C293.206 74.5 294.876 75.01 296.176 76.03C297.496 77.05 298.316 78.42 298.636 80.14H297.226C296.966 78.74 296.286 77.64 295.186 76.84C294.106 76.04 292.766 75.64 291.166 75.64C289.966 75.64 288.876 75.91 287.896 76.45C286.916 76.97 286.126 77.78 285.526 78.88C284.946 79.96 284.656 81.28 284.656 82.84C284.656 84.42 284.946 85.75 285.526 86.83C286.126 87.91 286.916 88.72 287.896 89.26C288.876 89.8 289.966 90.07 291.166 90.07ZM301.909 82.84C301.909 81.16 302.239 79.69 302.899 78.43C303.579 77.17 304.509 76.2 305.689 75.52C306.889 74.84 308.249 74.5 309.769 74.5C311.489 74.5 312.949 74.92 314.149 75.76C315.349 76.6 316.189 77.67 316.669 78.97V74.71H318.019V91H316.669V86.71C316.189 88.03 315.339 89.12 314.119 89.98C312.919 90.82 311.469 91.24 309.769 91.24C308.249 91.24 306.889 90.9 305.689 90.22C304.509 89.52 303.579 88.54 302.899 87.28C302.239 86 301.909 84.52 301.909 82.84ZM316.669 82.84C316.669 81.42 316.369 80.17 315.769 79.09C315.189 77.99 314.389 77.15 313.369 76.57C312.349 75.97 311.209 75.67 309.949 75.67C308.629 75.67 307.469 75.96 306.469 76.54C305.469 77.1 304.689 77.92 304.129 79C303.569 80.08 303.289 81.36 303.289 82.84C303.289 84.32 303.569 85.6 304.129 86.68C304.689 87.76 305.469 88.59 306.469 89.17C307.489 89.75 308.649 90.04 309.949 90.04C311.209 90.04 312.349 89.75 313.369 89.17C314.409 88.57 315.219 87.73 315.799 86.65C316.379 85.55 316.669 84.28 316.669 82.84ZM307.039 72.85C307.139 72.09 307.379 71.5 307.759 71.08C308.159 70.66 308.659 70.45 309.259 70.45C309.599 70.45 309.899 70.52 310.159 70.66C310.419 70.78 310.709 70.97 311.029 71.23C311.329 71.47 311.579 71.65 311.779 71.77C311.999 71.87 312.259 71.92 312.559 71.92C312.899 71.92 313.189 71.8 313.429 71.56C313.669 71.32 313.819 70.98 313.879 70.54H314.779C314.719 71.26 314.479 71.84 314.059 72.28C313.639 72.7 313.129 72.91 312.529 72.91C312.149 72.91 311.819 72.84 311.539 72.7C311.279 72.56 310.979 72.36 310.639 72.1C310.359 71.88 310.119 71.72 309.919 71.62C309.719 71.5 309.489 71.44 309.229 71.44C308.489 71.44 308.059 71.91 307.939 72.85H307.039ZM330.105 91.24C328.585 91.24 327.215 90.9 325.995 90.22C324.775 89.54 323.815 88.57 323.115 87.31C322.435 86.03 322.095 84.54 322.095 82.84C322.095 81.16 322.445 79.69 323.145 78.43C323.845 77.15 324.805 76.18 326.025 75.52C327.265 74.84 328.645 74.5 330.165 74.5C331.685 74.5 333.055 74.84 334.275 75.52C335.495 76.18 336.445 77.14 337.125 78.4C337.825 79.66 338.175 81.14 338.175 82.84C338.175 84.54 337.825 86.03 337.125 87.31C336.425 88.57 335.455 89.54 334.215 90.22C332.995 90.9 331.625 91.24 330.105 91.24ZM330.105 90.04C331.285 90.04 332.385 89.78 333.405 89.26C334.445 88.72 335.275 87.91 335.895 86.83C336.515 85.75 336.825 84.42 336.825 82.84C336.825 81.28 336.515 79.96 335.895 78.88C335.275 77.8 334.455 77 333.435 76.48C332.415 75.94 331.315 75.67 330.135 75.67C328.955 75.67 327.855 75.94 326.835 76.48C325.835 77 325.025 77.8 324.405 78.88C323.785 79.96 323.475 81.28 323.475 82.84C323.475 84.42 323.775 85.75 324.375 86.83C324.995 87.91 325.805 88.72 326.805 89.26C327.825 89.78 328.925 90.04 330.105 90.04ZM349.897 82.84C349.897 81.16 350.227 79.69 350.887 78.43C351.567 77.17 352.497 76.2 353.677 75.52C354.877 74.84 356.237 74.5 357.757 74.5C359.417 74.5 360.857 74.92 362.077 75.76C363.297 76.58 364.157 77.65 364.657 78.97V68.8H366.007V91H364.657V86.68C364.177 88.02 363.337 89.12 362.137 89.98C360.937 90.82 359.477 91.24 357.757 91.24C356.237 91.24 354.877 90.9 353.677 90.22C352.497 89.52 351.567 88.54 350.887 87.28C350.227 86 349.897 84.52 349.897 82.84ZM364.657 82.84C364.657 81.42 364.357 80.17 363.757 79.09C363.177 77.99 362.377 77.15 361.357 76.57C360.337 75.97 359.197 75.67 357.937 75.67C356.617 75.67 355.457 75.96 354.457 76.54C353.457 77.1 352.677 77.92 352.117 79C351.557 80.08 351.277 81.36 351.277 82.84C351.277 84.32 351.557 85.6 352.117 86.68C352.677 87.76 353.457 88.59 354.457 89.17C355.477 89.75 356.637 90.04 357.937 90.04C359.197 90.04 360.337 89.75 361.357 89.17C362.397 88.57 363.207 87.73 363.787 86.65C364.367 85.55 364.657 84.28 364.657 82.84ZM385.593 81.76C385.593 82.48 385.573 83.02 385.533 83.38H371.463C371.503 84.84 371.823 86.07 372.423 87.07C373.023 88.07 373.813 88.82 374.793 89.32C375.773 89.82 376.843 90.07 378.003 90.07C379.603 90.07 380.943 89.68 382.023 88.9C383.103 88.1 383.783 87.02 384.063 85.66H385.473C385.153 87.32 384.333 88.67 383.013 89.71C381.693 90.73 380.023 91.24 378.003 91.24C376.483 91.24 375.123 90.9 373.923 90.22C372.723 89.54 371.783 88.57 371.103 87.31C370.423 86.03 370.083 84.54 370.083 82.84C370.083 81.14 370.413 79.66 371.073 78.4C371.753 77.14 372.693 76.18 373.893 75.52C375.093 74.84 376.463 74.5 378.003 74.5C379.563 74.5 380.913 74.84 382.053 75.52C383.213 76.18 384.093 77.07 384.693 78.19C385.293 79.29 385.593 80.48 385.593 81.76ZM384.243 82.27C384.303 80.83 384.043 79.61 383.463 78.61C382.903 77.61 382.133 76.87 381.153 76.39C380.173 75.89 379.113 75.64 377.973 75.64C376.833 75.64 375.773 75.89 374.793 76.39C373.833 76.87 373.043 77.61 372.423 78.61C371.823 79.61 371.503 80.83 371.463 82.27H384.243ZM397.3 80.5C397.3 78.42 397.73 76.57 398.59 74.95C399.47 73.31 400.67 72.03 402.19 71.11C403.73 70.19 405.45 69.73 407.35 69.73C409.75 69.73 411.77 70.29 413.41 71.41C415.05 72.53 416.25 74.1 417.01 76.12H415.45C414.85 74.52 413.85 73.26 412.45 72.34C411.07 71.4 409.37 70.93 407.35 70.93C405.73 70.93 404.26 71.32 402.94 72.1C401.62 72.86 400.58 73.97 399.82 75.43C399.06 76.87 398.68 78.56 398.68 80.5C398.68 82.42 399.06 84.1 399.82 85.54C400.58 86.96 401.62 88.06 402.94 88.84C404.26 89.62 405.73 90.01 407.35 90.01C409.37 90.01 411.07 89.55 412.45 88.63C413.85 87.69 414.85 86.42 415.45 84.82H417.01C416.25 86.84 415.05 88.41 413.41 89.53C411.77 90.65 409.75 91.21 407.35 91.21C405.45 91.21 403.73 90.76 402.19 89.86C400.67 88.94 399.47 87.67 398.59 86.05C397.73 84.41 397.3 82.56 397.3 80.5ZM428.396 91.24C426.876 91.24 425.506 90.9 424.286 90.22C423.066 89.54 422.106 88.57 421.406 87.31C420.726 86.03 420.386 84.54 420.386 82.84C420.386 81.16 420.736 79.69 421.436 78.43C422.136 77.15 423.096 76.18 424.316 75.52C425.556 74.84 426.936 74.5 428.456 74.5C429.976 74.5 431.346 74.84 432.566 75.52C433.786 76.18 434.736 77.14 435.416 78.4C436.116 79.66 436.466 81.14 436.466 82.84C436.466 84.54 436.116 86.03 435.416 87.31C434.716 88.57 433.746 89.54 432.506 90.22C431.286 90.9 429.916 91.24 428.396 91.24ZM428.396 90.04C429.576 90.04 430.676 89.78 431.696 89.26C432.736 88.72 433.566 87.91 434.186 86.83C434.806 85.75 435.116 84.42 435.116 82.84C435.116 81.28 434.806 79.96 434.186 78.88C433.566 77.8 432.746 77 431.726 76.48C430.706 75.94 429.606 75.67 428.426 75.67C427.246 75.67 426.146 75.94 425.126 76.48C424.126 77 423.316 77.8 422.696 78.88C422.076 79.96 421.766 81.28 421.766 82.84C421.766 84.42 422.066 85.75 422.666 86.83C423.286 87.91 424.096 88.72 425.096 89.26C426.116 89.78 427.216 90.04 428.396 90.04ZM459.822 74.38C461.682 74.38 463.202 74.98 464.382 76.18C465.562 77.36 466.152 79.12 466.152 81.46V91H464.832V81.55C464.832 79.61 464.362 78.13 463.422 77.11C462.502 76.07 461.232 75.55 459.612 75.55C457.932 75.55 456.582 76.13 455.562 77.29C454.542 78.45 454.032 80.13 454.032 82.33V91H452.712V81.55C452.712 79.61 452.242 78.13 451.302 77.11C450.382 76.07 449.112 75.55 447.492 75.55C445.812 75.55 444.462 76.13 443.442 77.29C442.422 78.45 441.912 80.13 441.912 82.33V91H440.562V74.71H441.912V78.25C442.372 76.97 443.112 76.01 444.132 75.37C445.172 74.71 446.362 74.38 447.702 74.38C449.182 74.38 450.452 74.77 451.512 75.55C452.592 76.31 453.332 77.44 453.732 78.94C454.112 77.44 454.852 76.31 455.952 75.55C457.052 74.77 458.342 74.38 459.822 74.38ZM472.292 79C472.752 77.68 473.582 76.6 474.782 75.76C476.002 74.92 477.472 74.5 479.192 74.5C480.712 74.5 482.062 74.84 483.242 75.52C484.442 76.2 485.372 77.17 486.032 78.43C486.712 79.69 487.052 81.16 487.052 82.84C487.052 84.52 486.712 86 486.032 87.28C485.372 88.54 484.442 89.52 483.242 90.22C482.062 90.9 480.712 91.24 479.192 91.24C477.492 91.24 476.032 90.82 474.812 89.98C473.612 89.12 472.772 88.04 472.292 86.74V98.68H470.942V74.71H472.292V79ZM485.672 82.84C485.672 81.36 485.392 80.08 484.832 79C484.272 77.92 483.482 77.1 482.462 76.54C481.462 75.96 480.302 75.67 478.982 75.67C477.722 75.67 476.582 75.97 475.562 76.57C474.542 77.15 473.742 77.99 473.162 79.09C472.582 80.17 472.292 81.42 472.292 82.84C472.292 84.28 472.582 85.55 473.162 86.65C473.742 87.73 474.542 88.57 475.562 89.17C476.582 89.75 477.722 90.04 478.982 90.04C480.302 90.04 481.462 89.75 482.462 89.17C483.482 88.59 484.272 87.76 484.832 86.68C485.392 85.6 485.672 84.32 485.672 82.84ZM492.478 78.07C492.878 76.87 493.588 75.96 494.608 75.34C495.628 74.7 496.928 74.38 498.508 74.38V75.79H498.058C496.458 75.79 495.128 76.25 494.068 77.17C493.008 78.07 492.478 79.55 492.478 81.61V91H491.128V74.71H492.478V78.07ZM500.776 82.84C500.776 81.16 501.106 79.69 501.766 78.43C502.446 77.17 503.376 76.2 504.556 75.52C505.756 74.84 507.116 74.5 508.636 74.5C510.356 74.5 511.816 74.92 513.016 75.76C514.216 76.6 515.056 77.67 515.536 78.97V74.71H516.886V91H515.536V86.71C515.056 88.03 514.206 89.12 512.986 89.98C511.786 90.82 510.336 91.24 508.636 91.24C507.116 91.24 505.756 90.9 504.556 90.22C503.376 89.52 502.446 88.54 501.766 87.28C501.106 86 500.776 84.52 500.776 82.84ZM515.536 82.84C515.536 81.42 515.236 80.17 514.636 79.09C514.056 77.99 513.256 77.15 512.236 76.57C511.216 75.97 510.076 75.67 508.816 75.67C507.496 75.67 506.336 75.96 505.336 76.54C504.336 77.1 503.556 77.92 502.996 79C502.436 80.08 502.156 81.36 502.156 82.84C502.156 84.32 502.436 85.6 502.996 86.68C503.556 87.76 504.336 88.59 505.336 89.17C506.356 89.75 507.516 90.04 508.816 90.04C510.076 90.04 511.216 89.75 512.236 89.17C513.276 88.57 514.086 87.73 514.666 86.65C515.246 85.55 515.536 84.28 515.536 82.84ZM531.619 69.94V91H530.269V69.94H531.619ZM543.917 74.38C545.857 74.38 547.437 74.98 548.657 76.18C549.877 77.36 550.487 79.12 550.487 81.46V91H549.167V81.55C549.167 79.61 548.677 78.13 547.697 77.11C546.717 76.07 545.387 75.55 543.707 75.55C541.947 75.55 540.537 76.11 539.477 77.23C538.437 78.35 537.917 80.01 537.917 82.21V91H536.567V74.71H537.917V78.16C538.377 76.94 539.137 76.01 540.197 75.37C541.277 74.71 542.517 74.38 543.917 74.38ZM557.269 75.88V86.65C557.269 87.85 557.489 88.68 557.929 89.14C558.369 89.58 559.149 89.8 560.269 89.8H562.099V91H560.059C558.639 91 557.589 90.67 556.909 90.01C556.249 89.33 555.919 88.21 555.919 86.65V75.88H553.459V74.71H555.919V70.57H557.269V74.71H562.099V75.88H557.269ZM580.329 81.76C580.329 82.48 580.309 83.02 580.269 83.38H566.199C566.239 84.84 566.559 86.07 567.159 87.07C567.759 88.07 568.549 88.82 569.529 89.32C570.509 89.82 571.579 90.07 572.739 90.07C574.339 90.07 575.679 89.68 576.759 88.9C577.839 88.1 578.519 87.02 578.799 85.66H580.209C579.889 87.32 579.069 88.67 577.749 89.71C576.429 90.73 574.759 91.24 572.739 91.24C571.219 91.24 569.859 90.9 568.659 90.22C567.459 89.54 566.519 88.57 565.839 87.31C565.159 86.03 564.819 84.54 564.819 82.84C564.819 81.14 565.149 79.66 565.809 78.4C566.489 77.14 567.429 76.18 568.629 75.52C569.829 74.84 571.199 74.5 572.739 74.5C574.299 74.5 575.649 74.84 576.789 75.52C577.949 76.18 578.829 77.07 579.429 78.19C580.029 79.29 580.329 80.48 580.329 81.76ZM578.979 82.27C579.039 80.83 578.779 79.61 578.199 78.61C577.639 77.61 576.869 76.87 575.889 76.39C574.909 75.89 573.849 75.64 572.709 75.64C571.569 75.64 570.509 75.89 569.529 76.39C568.569 76.87 567.779 77.61 567.159 78.61C566.559 79.61 566.239 80.83 566.199 82.27H578.979ZM585.759 68.8V91H584.409V68.8H585.759ZM591.398 71.08C591.078 71.08 590.808 70.98 590.588 70.78C590.368 70.56 590.258 70.27 590.258 69.91C590.258 69.57 590.368 69.29 590.588 69.07C590.808 68.85 591.078 68.74 591.398 68.74C591.718 68.74 591.988 68.85 592.208 69.07C592.428 69.29 592.538 69.57 592.538 69.91C592.538 70.27 592.428 70.56 592.208 70.78C591.988 70.98 591.718 71.08 591.398 71.08ZM592.058 74.71V91H590.708V74.71H592.058ZM604.027 74.5C605.747 74.5 607.207 74.92 608.407 75.76C609.607 76.58 610.447 77.64 610.927 78.94V74.71H612.277V91.51C612.277 93.01 611.947 94.32 611.287 95.44C610.627 96.58 609.737 97.45 608.617 98.05C607.497 98.67 606.247 98.98 604.867 98.98C602.827 98.98 601.137 98.49 599.797 97.51C598.457 96.53 597.577 95.21 597.157 93.55H598.507C598.907 94.85 599.657 95.88 600.757 96.64C601.857 97.42 603.227 97.81 604.867 97.81C606.007 97.81 607.037 97.55 607.957 97.03C608.877 96.53 609.597 95.8 610.117 94.84C610.657 93.9 610.927 92.79 610.927 91.51V86.74C610.447 88.04 609.597 89.12 608.377 89.98C607.177 90.82 605.727 91.24 604.027 91.24C602.507 91.24 601.147 90.9 599.947 90.22C598.767 89.52 597.837 88.54 597.157 87.28C596.497 86 596.167 84.52 596.167 82.84C596.167 81.16 596.497 79.69 597.157 78.43C597.837 77.17 598.767 76.2 599.947 75.52C601.147 74.84 602.507 74.5 604.027 74.5ZM610.927 82.84C610.927 81.42 610.627 80.17 610.027 79.09C609.447 77.99 608.647 77.15 607.627 76.57C606.607 75.97 605.467 75.67 604.207 75.67C602.887 75.67 601.727 75.96 600.727 76.54C599.727 77.1 598.947 77.92 598.387 79C597.827 80.08 597.547 81.36 597.547 82.84C597.547 84.32 597.827 85.6 598.387 86.68C598.947 87.76 599.727 88.59 600.727 89.17C601.747 89.75 602.907 90.04 604.207 90.04C605.467 90.04 606.607 89.75 607.627 89.17C608.667 88.57 609.477 87.73 610.057 86.65C610.637 85.55 610.927 84.28 610.927 82.84ZM631.862 81.76C631.862 82.48 631.842 83.02 631.802 83.38H617.732C617.772 84.84 618.092 86.07 618.692 87.07C619.292 88.07 620.082 88.82 621.062 89.32C622.042 89.82 623.112 90.07 624.272 90.07C625.872 90.07 627.212 89.68 628.292 88.9C629.372 88.1 630.052 87.02 630.332 85.66H631.742C631.422 87.32 630.602 88.67 629.282 89.71C627.962 90.73 626.292 91.24 624.272 91.24C622.752 91.24 621.392 90.9 620.192 90.22C618.992 89.54 618.052 88.57 617.372 87.31C616.692 86.03 616.352 84.54 616.352 82.84C616.352 81.14 616.682 79.66 617.342 78.4C618.022 77.14 618.962 76.18 620.162 75.52C621.362 74.84 622.732 74.5 624.272 74.5C625.832 74.5 627.182 74.84 628.322 75.52C629.482 76.18 630.362 77.07 630.962 78.19C631.562 79.29 631.862 80.48 631.862 81.76ZM630.512 82.27C630.572 80.83 630.312 79.61 629.732 78.61C629.172 77.61 628.402 76.87 627.422 76.39C626.442 75.89 625.382 75.64 624.242 75.64C623.102 75.64 622.042 75.89 621.062 76.39C620.102 76.87 619.312 77.61 618.692 78.61C618.092 79.61 617.772 80.83 617.732 82.27H630.512ZM643.292 74.38C645.232 74.38 646.812 74.98 648.032 76.18C649.252 77.36 649.862 79.12 649.862 81.46V91H648.542V81.55C648.542 79.61 648.052 78.13 647.072 77.11C646.092 76.07 644.762 75.55 643.082 75.55C641.322 75.55 639.912 76.11 638.852 77.23C637.812 78.35 637.292 80.01 637.292 82.21V91H635.942V74.71H637.292V78.16C637.752 76.94 638.512 76.01 639.572 75.37C640.652 74.71 641.892 74.38 643.292 74.38ZM656.644 75.88V86.65C656.644 87.85 656.864 88.68 657.304 89.14C657.744 89.58 658.524 89.8 659.644 89.8H661.474V91H659.434C658.014 91 656.964 90.67 656.284 90.01C655.624 89.33 655.294 88.21 655.294 86.65V75.88H652.834V74.71H655.294V70.57H656.644V74.71H661.474V75.88H656.644ZM679.704 81.76C679.704 82.48 679.684 83.02 679.644 83.38H665.574C665.614 84.84 665.934 86.07 666.534 87.07C667.134 88.07 667.924 88.82 668.904 89.32C669.884 89.82 670.954 90.07 672.114 90.07C673.714 90.07 675.054 89.68 676.134 88.9C677.214 88.1 677.894 87.02 678.174 85.66H679.584C679.264 87.32 678.444 88.67 677.124 89.71C675.804 90.73 674.134 91.24 672.114 91.24C670.594 91.24 669.234 90.9 668.034 90.22C666.834 89.54 665.894 88.57 665.214 87.31C664.534 86.03 664.194 84.54 664.194 82.84C664.194 81.14 664.524 79.66 665.184 78.4C665.864 77.14 666.804 76.18 668.004 75.52C669.204 74.84 670.574 74.5 672.114 74.5C673.674 74.5 675.024 74.84 676.164 75.52C677.324 76.18 678.204 77.07 678.804 78.19C679.404 79.29 679.704 80.48 679.704 81.76ZM678.354 82.27C678.414 80.83 678.154 79.61 677.574 78.61C677.014 77.61 676.244 76.87 675.264 76.39C674.284 75.89 673.224 75.64 672.084 75.64C670.944 75.64 669.884 75.89 668.904 76.39C667.944 76.87 667.154 77.61 666.534 78.61C665.934 79.61 665.614 80.83 665.574 82.27H678.354Z" fill="#3A3C4E"/>
<defs>
<filter id="filter0_dd" x="1.78613" y="52.8125" width="149.431" height="50.4805" filterUnits="userSpaceOnUse" color-interpolation-filters="sRGB">
<feFlood flood-opacity="0" result="BackgroundImageFix"/>
<feColorMatrix in="SourceAlpha" type="matrix" values="0 0 0 0 0 0 0 0 0 0 0 0 0 0 0 0 0 0 127 0" result="hardAlpha"/>
<feOffset dy="4"/>
<feGaussianBlur stdDeviation="2"/>
<feColorMatrix type="matrix" values="0 0 0 0 0 0 0 0 0 0 0 0 0 0 0 0 0 0 0.25 0"/>
<feBlend mode="normal" in2="BackgroundImageFix" result="effect1_dropShadow"/>
<feColorMatrix in="SourceAlpha" type="matrix" values="0 0 0 0 0 0 0 0 0 0 0 0 0 0 0 0 0 0 127 0" result="hardAlpha"/>
<feOffset dy="4"/>
<feGaussianBlur stdDeviation="2"/>
<feColorMatrix type="matrix" values="0 0 0 0 0 0 0 0 0 0 0 0 0 0 0 0 0 0 0.25 0"/>
<feBlend mode="normal" in2="effect1_dropShadow" result="effect2_dropShadow"/>
<feBlend mode="normal" in="SourceGraphic" in2="effect2_dropShadow" result="shape"/>
</filter>
</defs>
</svg>
