<svg width="198" height="66" viewBox="0 0 198 66" fill="none" xmlns="http://www.w3.org/2000/svg">
<g filter="url(#filter0_dd)">
<path d="M49.832 0.75C50.8086 0.75 51.6549 1.10807 52.3711 1.82422C53.0872 2.54036 53.4453 3.41927 53.4453 4.46094V52.2148C53.4453 53.6471 52.9245 54.8841 51.8828 55.9258C50.8411 56.9023 49.6042 57.3906 48.1719 57.3906H47.1953C45.4375 57.3906 44.0378 56.6745 42.9961 55.2422L12.0391 10.5156V53.7773C12.0391 54.7539 11.681 55.6003 10.9648 56.3164C10.2487 57.0326 9.36979 57.3906 8.32812 57.3906C7.35156 57.3906 6.50521 57.0326 5.78906 56.3164C5.07292 55.6003 4.71484 54.7539 4.71484 53.7773V6.02344C4.71484 4.59115 5.20312 3.35417 6.17969 2.3125C7.22135 1.27083 8.49089 0.75 9.98828 0.75H10.9648C12.6576 0.75 14.1549 1.5638 15.457 3.19141L46.2188 47.625V4.46094C46.2188 3.48438 46.5768 2.63802 47.293 1.92188C48.0091 1.14062 48.8555 0.75 49.832 0.75ZM111.453 51.5312C112.039 52.2474 112.332 53.0938 112.332 54.0703C112.332 54.9818 112.007 55.763 111.355 56.4141C110.704 57.0651 109.826 57.3906 108.719 57.3906C107.612 57.3906 106.668 56.9349 105.887 56.0234L85.2812 29.6562L76.1992 38.8359V53.7773C76.1992 54.7539 75.8411 55.6003 75.125 56.3164C74.4089 57.0326 73.5299 57.3906 72.4883 57.3906C71.5117 57.3906 70.6654 57.0326 69.9492 56.3164C69.2331 55.6003 68.875 54.7539 68.875 53.7773V4.46094C68.875 3.48438 69.2331 2.63802 69.9492 1.92188C70.6654 1.14062 71.5117 0.75 72.4883 0.75C73.4648 0.75 74.3112 1.10807 75.0273 1.82422C75.8086 2.54036 76.1992 3.41927 76.1992 4.46094V29.8516L103.543 2.11719C104.194 1.27083 105.04 0.847656 106.082 0.847656C107.189 0.782552 108.068 1.07552 108.719 1.72656C109.37 2.3125 109.695 3.1263 109.695 4.16797C109.695 5.14453 109.37 5.89323 108.719 6.41406L90.2617 24.7734L111.453 51.5312ZM155.008 0.75C155.919 0.75 156.766 1.04297 157.547 1.62891C158.328 2.21484 158.849 2.93099 159.109 3.77734L172.684 47.8203L186.062 3.67969C186.648 1.72656 187.885 0.75 189.773 0.75C190.815 0.75 191.661 1.07552 192.312 1.72656C192.964 2.3125 193.289 2.96354 193.289 3.67969C193.289 4.39583 193.191 5.04688 192.996 5.63281L177.371 53.7773C176.525 56.1862 174.93 57.3906 172.586 57.3906C171.544 57.3906 170.568 57.0651 169.656 56.4141C168.81 55.763 168.224 54.8841 167.898 53.7773L155.008 13.0547L142.117 53.7773C141.792 54.819 141.173 55.6979 140.262 56.4141C139.415 57.0651 138.471 57.3906 137.43 57.3906C135.151 57.3906 133.556 56.1862 132.645 53.7773L117.02 5.63281C116.889 5.04688 116.824 4.39583 116.824 3.67969C116.824 2.96354 117.117 2.3125 117.703 1.72656C118.354 1.07552 119.168 0.75 120.145 0.75C122.098 0.75 123.335 1.72656 123.855 3.67969L137.332 47.8203L150.809 3.77734C151.069 2.86589 151.59 2.14974 152.371 1.62891C153.217 1.04297 154.096 0.75 155.008 0.75Z" fill="#BB6BD9"/>
</g>
<defs>
<filter id="filter0_dd" x="0.714844" y="0.75" width="196.574" height="64.6406" filterUnits="userSpaceOnUse" color-interpolation-filters="sRGB">
<feFlood flood-opacity="0" result="BackgroundImageFix"/>
<feColorMatrix in="SourceAlpha" type="matrix" values="0 0 0 0 0 0 0 0 0 0 0 0 0 0 0 0 0 0 127 0" result="hardAlpha"/>
<feOffset dy="4"/>
<feGaussianBlur stdDeviation="2"/>
<feColorMatrix type="matrix" values="0 0 0 0 0 0 0 0 0 0 0 0 0 0 0 0 0 0 0.25 0"/>
<feBlend mode="normal" in2="BackgroundImageFix" result="effect1_dropShadow"/>
<feColorMatrix in="SourceAlpha" type="matrix" values="0 0 0 0 0 0 0 0 0 0 0 0 0 0 0 0 0 0 127 0" result="hardAlpha"/>
<feOffset dy="4"/>
<feGaussianBlur stdDeviation="2"/>
<feColorMatrix type="matrix" values="0 0 0 0 0 0 0 0 0 0 0 0 0 0 0 0 0 0 0.25 0"/>
<feBlend mode="normal" in2="effect1_dropShadow" result="effect2_dropShadow"/>
<feBlend mode="normal" in="SourceGraphic" in2="effect2_dropShadow" result="shape"/>
</filter>
</defs>
</svg>
